<svg width="86" height="86" viewBox="0 0 86 86" fill="none" xmlns="http://www.w3.org/2000/svg">
<g clip-path="url(#clip0)">
<path d="M19.101 63.1296L34.899 74.3704C36.4858 75.4995 35.687 78 33.7395 78H24.9409C24.345 78 23.7801 77.7342 23.4001 77.2751L0.857309 50.0359C0.338906 49.4095 0.251332 48.5316 0.635777 47.8151L21.5685 8.80422C21.8426 8.29341 22.3248 7.92666 22.8903 7.79897L36.0736 4.82209C36.9231 4.63027 37.7991 5.01021 38.2395 5.76153L43.7722 15.1996C44.641 16.6817 43.3602 18.4972 41.6726 18.1757L26.6595 15.3161C25.7012 15.1336 24.7511 15.669 24.4109 16.5833L17.3911 35.4488C17.1482 36.1018 17.2625 36.8341 17.6929 37.3819L27.2915 49.5983C27.7303 50.1568 28.4324 50.4406 29.1361 50.3441L51.7114 47.2455C52.7274 47.106 53.6843 47.7577 53.9267 48.7542L57.3985 63.0273C57.7048 64.2865 56.7511 65.5 55.4552 65.5H36.5C35.8705 65.5 35.2777 65.2036 34.9 64.7L31.6 60.3C31.2223 59.7964 30.6295 59.5 30 59.5H20.2605C18.313 59.5 17.5142 62.0005 19.101 63.1296Z" fill="#92EB00"/>
<path d="M66.899 23.8704L51.101 12.6296C49.5142 11.5005 50.313 9 52.2606 9L61.0591 9C61.655 9 62.2199 9.26575 62.5999 9.72486L85.1427 36.9641C85.6611 37.5905 85.7487 38.4684 85.3642 39.1849L64.4315 78.1958C64.1574 78.7066 63.6752 79.0733 63.1097 79.201L49.9264 82.1779C49.0769 82.3697 48.2009 81.9898 47.7605 81.2385L42.2278 71.8004C41.359 70.3183 42.6398 68.5028 44.3274 68.8243L59.3405 71.6839C60.2988 71.8664 61.2489 71.331 61.5891 70.4167L68.6089 51.5512C68.8518 50.8982 68.7375 50.1659 68.3071 49.6181L58.7085 37.4017C58.2697 36.8432 57.5676 36.5594 56.8639 36.6559L34.2886 39.7545C33.2726 39.894 32.3157 39.2423 32.0733 38.2458L28.6015 23.9727C28.2952 22.7135 29.2489 21.5 30.5448 21.5L49.5 21.5C50.1295 21.5 50.7223 21.7964 51.1 22.3L54.4 26.7C54.7777 27.2036 55.3705 27.5 56 27.5L65.7395 27.5C67.687 27.5 68.4858 24.9995 66.899 23.8704Z" fill="#00B2FF"/>
</g>
<defs>
<clipPath id="clip0">
<rect width="86" height="86" fill="white"/>
</clipPath>
</defs>
</svg>
