<svg width="204" height="136" viewBox="0 0 204 136" fill="none" xmlns="http://www.w3.org/2000/svg">
<g opacity="0.96">
<rect width="204" height="136" fill="white"/>
<path d="M71.101 60.1296L86.899 71.3704C88.4858 72.4995 87.687 75 85.7395 75H76.9409C76.345 75 75.7801 74.7342 75.4001 74.2751L52.8573 47.0359C52.3389 46.4095 52.2513 45.5316 52.6358 44.8151L73.5685 5.80422C73.8426 5.29341 74.3248 4.92666 74.8903 4.79897L88.0736 1.82209C88.9231 1.63027 89.7991 2.01021 90.2395 2.76153L95.7722 12.1996C96.641 13.6817 95.3602 15.4972 93.6726 15.1757L78.6595 12.3161C77.7012 12.1336 76.7511 12.669 76.4109 13.5833L69.3911 32.4488C69.1482 33.1018 69.2625 33.8341 69.6929 34.3819L79.2915 46.5983C79.7303 47.1568 80.4324 47.4406 81.1361 47.3441L103.711 44.2455C104.727 44.106 105.684 44.7577 105.927 45.7542L109.399 60.0273C109.705 61.2865 108.751 62.5 107.455 62.5H88.5C87.8705 62.5 87.2777 62.2036 86.9 61.7L83.6 57.3C83.2223 56.7964 82.6295 56.5 82 56.5H72.2605C70.313 56.5 69.5142 59.0005 71.101 60.1296Z" fill="#92EB00"/>
<path d="M118.899 20.8704L103.101 9.62958C101.514 8.50049 102.313 6 104.261 6L113.059 6C113.655 6 114.22 6.26575 114.6 6.72486L137.143 33.9641C137.661 34.5905 137.749 35.4684 137.364 36.1849L116.432 75.1958C116.157 75.7066 115.675 76.0733 115.11 76.201L101.926 79.1779C101.077 79.3697 100.201 78.9898 99.7605 78.2385L94.2278 68.8004C93.359 67.3183 94.6398 65.5028 96.3274 65.8243L111.34 68.6839C112.299 68.8664 113.249 68.331 113.589 67.4167L120.609 48.5512C120.852 47.8982 120.737 47.1659 120.307 46.6181L110.708 34.4017C110.27 33.8432 109.568 33.5594 108.864 33.6559L86.2886 36.7545C85.2726 36.894 84.3157 36.2423 84.0733 35.2458L80.6015 20.9727C80.2952 19.7135 81.2489 18.5 82.5448 18.5L101.5 18.5C102.13 18.5 102.722 18.7964 103.1 19.3L106.4 23.7C106.778 24.2036 107.37 24.5 108 24.5L117.739 24.5C119.687 24.5 120.486 21.9995 118.899 20.8704Z" fill="#00B2FF"/>
<path d="M9.65 125.4C7.31667 125.4 5.41667 124.667 3.95 123.2C2.51667 121.733 1.7 119.767 1.5 117.3L5.95 115.95C6.21667 117.817 6.66667 119.2 7.3 120.1C7.96667 121 8.9 121.45 10.1 121.45C11.0333 121.45 11.75 121.183 12.25 120.65C12.7833 120.083 13.05 119.333 13.05 118.4C13.05 117.567 12.8667 116.817 12.5 116.15C12.1333 115.483 11.5333 114.8 10.7 114.1L5.75 109.85C4.61667 108.883 3.73333 107.867 3.1 106.8C2.5 105.7 2.2 104.367 2.2 102.8C2.2 100.567 2.86667 98.8333 4.2 97.6C5.53333 96.3333 7.35 95.7 9.65 95.7C11.85 95.7 13.5667 96.4167 14.8 97.85C16.0667 99.25 16.8 101.067 17 103.3L13.4 104.65C13.1667 103.017 12.7833 101.783 12.25 100.95C11.7167 100.083 10.9167 99.65 9.85 99.65C8.98333 99.65 8.28333 99.9333 7.75 100.5C7.25 101.067 7 101.767 7 102.6C7 103.667 7.48333 104.633 8.45 105.5L13.55 110.2C14.85 111.4 15.85 112.583 16.55 113.75C17.2833 114.917 17.65 116.333 17.65 118C17.65 120.4 16.9333 122.233 15.5 123.5C14.0667 124.767 12.1167 125.4 9.65 125.4Z" fill="black"/>
<path d="M21.6512 96.1H27.0012V98.4C28.5678 96.6 30.4012 95.7 32.5012 95.7C35.1345 95.7 36.8845 96.8333 37.7512 99.1C38.6512 101.333 39.1012 103.817 39.1012 106.55V113.55C39.1012 117.083 38.5512 119.95 37.4512 122.15C36.3845 124.317 34.5345 125.4 31.9012 125.4C30.2012 125.4 28.5678 124.55 27.0012 122.85V134.5H21.6512V96.1ZM30.8512 121.2C32.0845 121.2 32.8678 120.583 33.2012 119.35C33.5678 118.083 33.7512 116.15 33.7512 113.55V106.55C33.7512 104.417 33.5512 102.783 33.1512 101.65C32.7512 100.483 31.9178 99.9 30.6512 99.9C29.4178 99.9 28.2012 100.4 27.0012 101.4V119.9C28.1678 120.767 29.4512 121.2 30.8512 121.2Z" fill="black"/>
<path d="M51.9656 125.4C49.7323 125.4 47.999 124.983 46.7656 124.15C45.5323 123.283 44.6656 122.017 44.1656 120.35C43.6656 118.683 43.4156 116.517 43.4156 113.85V107.25C43.4156 103.25 44.0323 100.333 45.2656 98.5C46.5323 96.6333 48.7656 95.7 51.9656 95.7C54.299 95.7 56.049 96.1833 57.2156 97.15C58.4156 98.1167 59.199 99.4833 59.5656 101.25C59.9656 102.983 60.1656 105.333 60.1656 108.3V110.65H48.7656V116.45C48.7656 118.217 49.0156 119.5 49.5156 120.3C50.049 121.067 50.8823 121.45 52.0156 121.45C53.149 121.45 53.9156 121.067 54.3156 120.3C54.7156 119.5 54.9156 118.3 54.9156 116.7V114.95H60.1156V116.05C60.1156 119.083 59.4656 121.4 58.1656 123C56.8656 124.6 54.799 125.4 51.9656 125.4ZM54.9156 107.75V105.15C54.9156 103.183 54.7156 101.783 54.3156 100.95C53.949 100.083 53.149 99.65 51.9156 99.65C51.049 99.65 50.3823 99.85 49.9156 100.25C49.4823 100.65 49.1823 101.317 49.0156 102.25C48.849 103.15 48.7656 104.467 48.7656 106.2V107.75H54.9156Z" fill="black"/>
<path d="M72.9105 125.4C70.6439 125.4 68.8939 124.95 67.6605 124.05C66.4272 123.117 65.5772 121.833 65.1105 120.2C64.6772 118.533 64.4605 116.433 64.4605 113.9V107.25C64.4605 104.65 64.6772 102.517 65.1105 100.85C65.5772 99.1833 66.4272 97.9167 67.6605 97.05C68.8939 96.15 70.6439 95.7 72.9105 95.7C74.9772 95.7 76.5772 96.0333 77.7105 96.7C78.8772 97.3667 79.6772 98.3667 80.1105 99.7C80.5772 101 80.8105 102.7 80.8105 104.8V106.5H75.9605V104.75C75.9605 102.85 75.7439 101.533 75.3105 100.8C74.9105 100.033 74.1272 99.65 72.9605 99.65C72.0605 99.65 71.3939 99.85 70.9605 100.25C70.5272 100.65 70.2272 101.3 70.0605 102.2C69.8939 103.1 69.8105 104.417 69.8105 106.15V115.25C69.8105 116.917 69.9105 118.2 70.1105 119.1C70.3105 119.967 70.6272 120.583 71.0605 120.95C71.5272 121.283 72.1772 121.45 73.0105 121.45C74.2439 121.45 75.0439 121.05 75.4105 120.25C75.7772 119.417 75.9605 118.15 75.9605 116.45V114.1H80.8105V116.1C80.8105 119.233 80.2272 121.567 79.0605 123.1C77.9272 124.633 75.8772 125.4 72.9105 125.4Z" fill="black"/>
<path d="M89.7172 125.4C88.1505 125.4 87.0338 124.833 86.3672 123.7C85.7005 122.567 85.3672 121.167 85.3672 119.5V96.1H90.7172V117.9C90.7172 119 90.8838 119.833 91.2172 120.4C91.5505 120.933 92.1505 121.2 93.0172 121.2C94.0839 121.2 95.3338 120.6 96.7672 119.4V96.1H102.117V125H96.7672V122.15C94.4672 124.317 92.1172 125.4 89.7172 125.4Z" fill="black"/>
<path d="M108.089 84.5H113.439V125H108.089V84.5Z" fill="black"/>
<path d="M124.214 125.4C123.114 125.4 122.114 125.083 121.214 124.45C120.348 123.817 119.664 122.983 119.164 121.95C118.664 120.917 118.414 119.833 118.414 118.7C118.414 116.433 118.898 114.6 119.864 113.2C120.831 111.767 122.064 110.633 123.564 109.8C125.064 108.967 127.148 108.017 129.814 106.95V104.9C129.814 103 129.614 101.667 129.214 100.9C128.848 100.1 128.081 99.7 126.914 99.7C124.881 99.7 123.864 101.067 123.864 103.8V105.25L118.564 105.05C118.631 101.85 119.364 99.5 120.764 98C122.164 96.4667 124.331 95.7 127.264 95.7C130.031 95.7 132.031 96.4667 133.264 98C134.531 99.5 135.164 101.783 135.164 104.85V118.05C135.164 120.217 135.331 122.533 135.664 125H130.764C130.398 123.1 130.164 121.683 130.064 120.75C129.664 122.05 128.964 123.15 127.964 124.05C126.998 124.95 125.748 125.4 124.214 125.4ZM126.314 120.8C127.014 120.8 127.698 120.533 128.364 120C129.031 119.433 129.514 118.9 129.814 118.4V110.2C128.381 111 127.264 111.7 126.464 112.3C125.698 112.867 125.048 113.533 124.514 114.3C124.014 115.067 123.764 115.983 123.764 117.05C123.764 118.25 123.981 119.183 124.414 119.85C124.848 120.483 125.481 120.8 126.314 120.8Z" fill="black"/>
<path d="M147.613 125.4C143.446 125.4 141.363 123.1 141.363 118.5V99.65H138.313V96.1H141.363V87.65H146.713V96.1H151.363V99.65H146.713V118.15C146.713 119.317 146.896 120.133 147.263 120.6C147.63 121.067 148.33 121.3 149.363 121.3C150.03 121.3 150.68 121.25 151.313 121.15V125.1C149.98 125.3 148.746 125.4 147.613 125.4Z" fill="black"/>
<path d="M155.644 86.2H160.994V91.8H155.644V86.2ZM155.644 96.1H160.994V125H155.644V96.1Z" fill="black"/>
<path d="M164.77 96.1H170.17L173.72 119.35L177.32 96.1H182.52L177.02 125H170.47L164.77 96.1Z" fill="black"/>
<path d="M193.958 125.4C191.724 125.4 189.991 124.983 188.758 124.15C187.524 123.283 186.658 122.017 186.158 120.35C185.658 118.683 185.408 116.517 185.408 113.85V107.25C185.408 103.25 186.024 100.333 187.258 98.5C188.524 96.6333 190.758 95.7 193.958 95.7C196.291 95.7 198.041 96.1833 199.208 97.15C200.408 98.1167 201.191 99.4833 201.558 101.25C201.958 102.983 202.158 105.333 202.158 108.3V110.65H190.758V116.45C190.758 118.217 191.008 119.5 191.508 120.3C192.041 121.067 192.874 121.45 194.008 121.45C195.141 121.45 195.908 121.067 196.308 120.3C196.708 119.5 196.908 118.3 196.908 116.7V114.95H202.108V116.05C202.108 119.083 201.458 121.4 200.158 123C198.858 124.6 196.791 125.4 193.958 125.4ZM196.908 107.75V105.15C196.908 103.183 196.708 101.783 196.308 100.95C195.941 100.083 195.141 99.65 193.908 99.65C193.041 99.65 192.374 99.85 191.908 100.25C191.474 100.65 191.174 101.317 191.008 102.25C190.841 103.15 190.758 104.467 190.758 106.2V107.75H196.908Z" fill="black"/>
</g>
</svg>
